<?xml version="1.0" encoding="UTF-8" standalone="no"?>
<svg width="23" height="21" viewBox="0 0 23 21" fill="none" version="1.1" id="svg1" sodipodi:docname="empty-heart.svg" inkscape:version="1.3.1 (9b9bdc1480, 2023-11-25, custom)" xmlns:inkscape="http://www.inkscape.org/namespaces/inkscape" xmlns:sodipodi="http://sodipodi.sourceforge.net/DTD/sodipodi-0.dtd" xmlns="http://www.w3.org/2000/svg" xmlns:svg="http://www.w3.org/2000/svg">
  <defs id="defs1" />
  <sodipodi:namedview id="namedview1" pagecolor="#ffffff" bordercolor="#111111" borderopacity="1" inkscape:showpageshadow="0" inkscape:pageopacity="0" inkscape:pagecheckerboard="1" inkscape:deskcolor="#d1d1d1" inkscape:zoom="10.126779" inkscape:cx="-4.1967934" inkscape:cy="18.910257" inkscape:window-width="3440" inkscape:window-height="1403" inkscape:window-x="1920" inkscape:window-y="0" inkscape:window-maximized="1" inkscape:current-layer="svg1" />
  <path d="M 12.815745,2.3132992 12.7203,2.40612 11.8739,3.35768 11.5003,3.77764 11.1267,3.35768 10.2802,2.40612 10.2797,2.40551 C 8.28247,0.152951 5.09737,-0.169283 2.9764,1.80238 0.482212,4.12487 0.344816,8.32394 2.58455,10.8499 l 8.31415,9.3653 10e-5,10e-5 c 0.3382,0.3806 0.8605,0.3806 1.1987,0 0,0 0,-10e-5 10e-5,-10e-5 l 8.3143,-9.3655 10e-5,-10e-5 C 22.6556,8.32372 22.547502,4.2892391 19.848028,2.049273 16.037553,-0.72915918 14.244868,0.84115818 12.815745,2.3132992 Z" stroke="#101010" id="path1" sodipodi:nodetypes="ccccccccccccccccc" />
</svg>
